<svg width="26" height="24" viewBox="0 0 26 24" fill="none" xmlns="http://www.w3.org/2000/svg">
<path d="M10.415 23.25V24H3.99796C3.49033 24 3.08021 23.5991 3.08021 23.1028V15.6179V14.8679H2.33021H1.8355C0.823109 14.8679 0 14.0633 0 13.0735C0 12.5969 0.195022 12.1398 0.53918 11.8034L12.3524 0.262836C12.4374 0.179517 12.5385 0.113416 12.6497 0.0683154C12.7609 0.0232147 12.8801 0 13.0005 0C13.1209 0 13.2402 0.0232147 13.3514 0.0683154M10.415 23.25H11.165V18.4694V17.7194H11.915H13.6272H14.3772V18.4694V23.25H15.1272M10.415 23.25V17.7194V16.9694H11.165H14.3772H15.1272V17.7194V23.25M10.415 23.25H3.99796C3.88846 23.25 3.83021 23.1689 3.83021 23.1028V14.8679V14.1179H3.08021H1.8355C1.22124 14.1179 0.75 13.6331 0.75 13.0735C0.75 12.8027 0.860785 12.5379 1.06328 12.3399L0.539199 11.8034L1.06348 12.3397L12.8765 0.799321L12.8772 0.798614C12.8918 0.784269 12.9102 0.772008 12.9315 0.763345C12.9529 0.754671 12.9764 0.75 13.0005 0.75C13.0247 0.75 13.0482 0.754671 13.0696 0.763344L13.3514 0.0683154M15.1272 23.25V24H22.0031C22.5107 24 22.9209 23.5991 22.9209 23.1028V15.6179V14.8679H23.6709H24.1656C24.6531 14.8679 25.1206 14.6801 25.4648 14.3408C26.1789 13.6399 26.1789 12.5043 25.4619 11.8034M15.1272 23.25H22.0031C22.1126 23.25 22.1709 23.1689 22.1709 23.1028V14.8679V14.1179H22.9209H24.1656C24.461 14.1179 24.7379 14.0042 24.9382 13.8067L24.9394 13.8056C25.3538 13.3989 25.3539 12.7468 24.9378 12.3399L25.4619 11.8034M25.4619 11.8034L13.6487 0.262836C13.5636 0.179517 13.4626 0.113416 13.3514 0.0683154M25.4619 11.8034L24.9376 12.3397L13.1246 0.799321L13.1239 0.798618C13.1092 0.784268 13.0909 0.772007 13.0696 0.763345L13.3514 0.0683154" stroke="black" stroke-width="1.5"/>
</svg>
