<svg width="34" height="30" viewBox="0 0 34 30" fill="none" xmlns="http://www.w3.org/2000/svg">
<path d="M32.7837 26.4438C31.7106 25.5713 30.7712 24.5711 29.9906 23.4701C29.1384 21.9503 28.6276 20.2906 28.4883 18.5883V13.5746C28.4837 12.9656 28.4242 12.358 28.3102 11.7579C27.4343 11.5982 26.5925 11.3103 25.8175 10.9053C26.1129 11.7729 26.263 12.6763 26.2626 13.5847V18.5984C26.399 20.675 27.0253 22.7002 28.0988 24.5357C28.8671 25.6461 29.7787 26.6683 30.8141 27.5805H2.31467C3.35005 26.6683 4.26166 25.6461 5.02996 24.5357C6.1034 22.7002 6.72972 20.675 6.86611 18.5984V13.5746C6.86026 12.4 7.1085 11.2359 7.59662 10.1489C8.08474 9.06197 8.80315 8.0735 9.71073 7.24011C10.6183 6.40672 11.6972 5.74479 12.8857 5.29222C14.0741 4.83965 15.3488 4.60533 16.6367 4.60267C18.5216 4.60405 20.3641 5.11242 21.9337 6.06416C21.7607 5.48463 21.6636 4.88843 21.6444 4.28805V3.64864C20.4825 3.12734 19.2342 2.78443 17.9498 2.63372V1.35492C17.9498 0.995573 17.7933 0.650944 17.5147 0.396847C17.2361 0.14275 16.8582 0 16.4642 0C16.0702 0 15.6923 0.14275 15.4137 0.396847C15.1351 0.650944 14.9786 0.995573 14.9786 1.35492V2.68447C12.1027 3.05446 9.47076 4.36086 7.56855 6.36248C5.66634 8.3641 4.62236 10.9258 4.62934 13.5746V18.5883C4.48997 20.2906 3.97921 21.9503 3.12703 23.4701C2.36017 24.5686 1.43576 25.5687 0.37836 26.4438C0.259657 26.5389 0.164521 26.656 0.0992832 26.7872C0.0340451 26.9185 0.000200081 27.0609 0 27.205V28.5853C0 28.8545 0.117243 29.1126 0.325938 29.3029C0.534633 29.4933 0.817684 29.6002 1.11282 29.6002H32.0493C32.3444 29.6002 32.6275 29.4933 32.8362 29.3029C33.0449 29.1126 33.1621 28.8545 33.1621 28.5853V27.205C33.1619 27.0609 33.1281 26.9185 33.0628 26.7872C32.9976 26.656 32.9025 26.5389 32.7837 26.4438Z" fill="#444444"/>
</svg>
