<svg width="168" height="148" viewBox="0 0 168 148" fill="none" xmlns="http://www.w3.org/2000/svg">
<path d="M21.0205 0.5C15.451 0.5 10.1095 2.71249 6.17127 6.65076C2.233 10.589 0.0205078 15.9305 0.0205078 21.5V126.5C0.0205078 132.07 2.233 137.411 6.17127 141.349C10.1095 145.288 15.451 147.5 21.0205 147.5H147.021C152.59 147.5 157.931 145.288 161.87 141.349C165.808 137.411 168.021 132.07 168.021 126.5V21.5C168.021 15.9305 165.808 10.589 161.87 6.65076C157.931 2.71249 152.59 0.5 147.021 0.5H21.0205ZM147.021 11C149.805 11 152.476 12.1062 154.445 14.0754C156.414 16.0445 157.521 18.7152 157.521 21.5V89.75L117.862 69.3065C116.877 68.8132 115.762 68.6421 114.675 68.8174C113.588 68.9926 112.583 69.5053 111.804 70.283L72.8485 109.238L44.9185 90.632C43.9101 89.9606 42.7005 89.6587 41.4949 89.7773C40.2892 89.896 39.1617 90.4279 38.3035 91.283L10.5205 116V21.5C10.5205 18.7152 11.6268 16.0445 13.5959 14.0754C15.565 12.1062 18.2357 11 21.0205 11H147.021Z" fill="#B3BDCB"/>
</svg>
